<?xml version="1.0" standalone="no"?>
<!DOCTYPE svg PUBLIC "-//W3C//DTD SVG 20010904//EN"
 "http://www.w3.org/TR/2001/REC-SVG-20010904/DTD/svg10.dtd">
<svg version="1.0" xmlns="http://www.w3.org/2000/svg"
 width="38.000000pt" height="38.000000pt" viewBox="0 0 38.000000 38.000000"
 preserveAspectRatio="xMidYMid meet">

<g transform="translate(0.000000,38.000000) scale(0.100000,-0.100000)"
fill="#000000" stroke="none">
<path d="M0 190 l0 -190 190 0 190 0 0 190 0 190 -190 0 -190 0 0 -190z m164
41 l29 -74 30 77 29 76 49 0 c35 0 49 -4 49 -14 0 -8 -7 -16 -15 -20 -22 -8
-22 -154 0 -162 8 -4 15 -12 15 -20 0 -10 -14 -14 -50 -14 -38 0 -50 4 -50 15
0 8 5 15 10 15 6 0 10 25 9 58 l0 57 -28 -70 c-40 -98 -60 -99 -96 -6 -16 39
-30 71 -32 71 -1 0 -3 -25 -3 -55 0 -42 3 -55 15 -55 8 0 15 -7 15 -15 0 -11
-12 -15 -50 -15 -38 0 -50 4 -50 15 0 8 5 15 10 15 6 0 10 33 10 79 0 44 -4
83 -10 86 -5 3 -10 13 -10 21 0 12 11 14 47 12 l47 -3 30 -74z"/>
</g>
</svg>
